<?xml version="1.0" standalone="no"?>
<!DOCTYPE svg PUBLIC "-//W3C//DTD SVG 20010904//EN"
 "http://www.w3.org/TR/2001/REC-SVG-20010904/DTD/svg10.dtd">
<svg version="1.0" xmlns="http://www.w3.org/2000/svg"
 width="500.000000pt" height="500.000000pt" viewBox="0 0 500.000000 500.000000"
 preserveAspectRatio="xMidYMid meet">

<g transform="translate(0.000000,500.000000) scale(0.100000,-0.100000)"
fill="#000000" stroke="none">
<path d="M2225 4245 c-675 -109 -1232 -601 -1420 -1255 -47 -163 -65 -299 -65
-485 0 -186 18 -322 65 -485 204 -708 842 -1224 1570 -1268 237 -15 504 20
695 91 l85 32 3 59 c3 53 1 58 -15 51 -311 -127 -676 -161 -998 -94 -80 17
-263 79 -350 119 -282 130 -533 353 -702 625 -331 530 -331 1210 0 1740 251
403 660 679 1117 753 240 39 398 37 625 -9 220 -45 457 -151 640 -288 345
-257 573 -627 646 -1049 28 -162 28 -393 -1 -557 -42 -246 -146 -491 -296
-703 l-16 -22 65 0 66 0 37 57 c326 504 366 1163 105 1708 -124 260 -332 507
-571 678 -180 128 -431 236 -667 288 -130 28 -481 36 -618 14z"/>
<path d="M2390 3489 c-25 -5 -81 -26 -125 -48 -170 -85 -279 -246 -292 -433
-11 -146 40 -293 137 -398 27 -30 48 -55 47 -56 -1 -2 -24 -12 -50 -23 -112
-48 -270 -181 -353 -297 -96 -135 -159 -312 -171 -480 -9 -132 17 -193 98
-234 37 -19 62 -20 822 -20 l783 0 48 30 c71 46 91 96 83 220 -19 297 -167
551 -419 720 -47 32 -102 63 -122 70 l-35 11 55 66 c101 119 140 234 131 383
-6 105 -33 184 -92 270 -54 79 -117 132 -210 176 -107 51 -219 66 -335 43z
m237 -117 c248 -78 366 -349 254 -587 -76 -164 -268 -266 -443 -235 -145 25
-261 111 -321 238 -30 63 -32 73 -32 182 0 104 3 121 27 172 48 103 152 195
257 229 74 24 183 24 258 1z m-279 -912 c90 -28 223 -27 313 2 l68 22 69 -27
c141 -56 299 -185 384 -314 79 -119 128 -283 128 -424 0 -121 88 -109 -811
-109 l-778 0 -15 22 c-33 47 -13 235 38 366 76 193 249 370 444 453 80 34 80
34 160 9z"/>
<path d="M3468 1440 c-15 -26 -22 -30 -63 -30 -33 0 -45 4 -45 15 0 12 -13 15
-61 15 -58 0 -64 -2 -97 -37 l-35 -37 5 -212 c3 -154 8 -217 17 -228 12 -14
61 -16 392 -16 l379 0 15 24 c14 21 15 52 9 238 -4 117 -11 219 -17 226 -6 8
-39 12 -98 12 -86 0 -88 1 -109 30 l-21 30 -127 0 -127 0 -17 -30z m482 -79
c7 -15 6 -24 -6 -36 -9 -9 -21 -14 -27 -12 -18 6 -31 33 -24 51 9 22 44 20 57
-3z m-262 -36 c76 -32 122 -102 122 -185 0 -64 -18 -106 -63 -149 -133 -127
-352 -16 -335 170 13 130 154 214 276 164z"/>
<path d="M3532 1289 c-106 -53 -124 -205 -33 -282 106 -89 255 -33 285 108 7
35 -15 108 -42 138 -27 30 -88 57 -129 57 -21 0 -57 -10 -81 -21z"/>
</g>
</svg>
